<mxfile host="app.diagrams.net" agent="Mozilla/5.0 (Macintosh; Intel Mac OS X 10_15_7) AppleWebKit/537.36 (KHTML, like Gecko) Chrome/137.0.0.0 Safari/537.36" version="28.0.9">
  <diagram name="Page-1" id="4Q5mHxb8pi_0pUOGYu90">
    <mxGraphModel dx="1842" dy="1684" grid="1" gridSize="10" guides="1" tooltips="1" connect="1" arrows="1" fold="1" page="1" pageScale="1" pageWidth="850" pageHeight="1100" math="0" shadow="0">
      <root>
        <mxCell id="0" />
        <mxCell id="1" parent="0" />
        <mxCell id="JdeHYtFpn3aFt2i3ZNIl-7" style="edgeStyle=orthogonalEdgeStyle;rounded=0;orthogonalLoop=1;jettySize=auto;html=1;entryX=0;entryY=0.5;entryDx=0;entryDy=0;" parent="1" source="JdeHYtFpn3aFt2i3ZNIl-2" target="JdeHYtFpn3aFt2i3ZNIl-5" edge="1">
          <mxGeometry relative="1" as="geometry" />
        </mxCell>
        <mxCell id="JdeHYtFpn3aFt2i3ZNIl-2" value="Set Chai Recipe (input)" style="rounded=0;whiteSpace=wrap;html=1;" parent="1" vertex="1">
          <mxGeometry x="60" y="70" width="120" height="60" as="geometry" />
        </mxCell>
        <mxCell id="JdeHYtFpn3aFt2i3ZNIl-9" style="edgeStyle=orthogonalEdgeStyle;rounded=0;orthogonalLoop=1;jettySize=auto;html=1;entryX=0.5;entryY=0;entryDx=0;entryDy=0;" parent="1" source="JdeHYtFpn3aFt2i3ZNIl-3" target="JdeHYtFpn3aFt2i3ZNIl-5" edge="1">
          <mxGeometry relative="1" as="geometry" />
        </mxCell>
        <mxCell id="JdeHYtFpn3aFt2i3ZNIl-3" value="Set Serving size (input)" style="rounded=0;whiteSpace=wrap;html=1;" parent="1" vertex="1">
          <mxGeometry x="260" y="70" width="120" height="60" as="geometry" />
        </mxCell>
        <mxCell id="JdeHYtFpn3aFt2i3ZNIl-8" style="edgeStyle=orthogonalEdgeStyle;rounded=0;orthogonalLoop=1;jettySize=auto;html=1;entryX=1;entryY=0.5;entryDx=0;entryDy=0;" parent="1" source="JdeHYtFpn3aFt2i3ZNIl-4" target="JdeHYtFpn3aFt2i3ZNIl-5" edge="1">
          <mxGeometry relative="1" as="geometry" />
        </mxCell>
        <mxCell id="JdeHYtFpn3aFt2i3ZNIl-4" value="Set Heating equipment&lt;br&gt;+&lt;div&gt;power source&lt;br&gt;(input)&lt;/div&gt;" style="rounded=0;whiteSpace=wrap;html=1;" parent="1" vertex="1">
          <mxGeometry x="460" y="70" width="130" height="70" as="geometry" />
        </mxCell>
        <mxCell id="JdeHYtFpn3aFt2i3ZNIl-5" value="Required&lt;div&gt;Inventory items&lt;/div&gt;" style="whiteSpace=wrap;html=1;aspect=fixed;" parent="1" vertex="1">
          <mxGeometry x="260" y="220" width="120" height="120" as="geometry" />
        </mxCell>
        <mxCell id="fUEkJKMRzZeiz2WE1QDj-2" style="edgeStyle=orthogonalEdgeStyle;rounded=0;orthogonalLoop=1;jettySize=auto;html=1;entryX=1;entryY=0.5;entryDx=0;entryDy=0;" edge="1" parent="1" source="JdeHYtFpn3aFt2i3ZNIl-13" target="JdeHYtFpn3aFt2i3ZNIl-5">
          <mxGeometry relative="1" as="geometry">
            <Array as="points">
              <mxPoint x="710" y="280" />
            </Array>
          </mxGeometry>
        </mxCell>
        <mxCell id="JdeHYtFpn3aFt2i3ZNIl-13" value="EditCurrent Inventory items&lt;br&gt;(table and input)" style="whiteSpace=wrap;html=1;aspect=fixed;" parent="1" vertex="1">
          <mxGeometry x="650" y="70" width="120" height="120" as="geometry" />
        </mxCell>
        <mxCell id="fUEkJKMRzZeiz2WE1QDj-15" style="edgeStyle=orthogonalEdgeStyle;rounded=0;orthogonalLoop=1;jettySize=auto;html=1;entryX=0;entryY=0.5;entryDx=0;entryDy=0;" edge="1" parent="1" source="fUEkJKMRzZeiz2WE1QDj-4" target="fUEkJKMRzZeiz2WE1QDj-5">
          <mxGeometry relative="1" as="geometry">
            <Array as="points">
              <mxPoint x="50" y="-185" />
              <mxPoint x="50" y="-185" />
            </Array>
          </mxGeometry>
        </mxCell>
        <mxCell id="fUEkJKMRzZeiz2WE1QDj-4" value="Chat History" style="rounded=0;whiteSpace=wrap;html=1;" vertex="1" parent="1">
          <mxGeometry x="-130" y="-210" width="120" height="930" as="geometry" />
        </mxCell>
        <mxCell id="fUEkJKMRzZeiz2WE1QDj-19" style="edgeStyle=orthogonalEdgeStyle;rounded=0;orthogonalLoop=1;jettySize=auto;html=1;entryX=0;entryY=0.5;entryDx=0;entryDy=0;" edge="1" parent="1" source="fUEkJKMRzZeiz2WE1QDj-5" target="fUEkJKMRzZeiz2WE1QDj-14">
          <mxGeometry relative="1" as="geometry" />
        </mxCell>
        <mxCell id="fUEkJKMRzZeiz2WE1QDj-5" value="Parse commands&lt;br&gt;+&amp;nbsp;&lt;br&gt;extract ambiguities" style="shape=process;whiteSpace=wrap;html=1;backgroundOutline=1;" vertex="1" parent="1">
          <mxGeometry x="260" y="-215" width="120" height="60" as="geometry" />
        </mxCell>
        <mxCell id="fUEkJKMRzZeiz2WE1QDj-9" style="edgeStyle=orthogonalEdgeStyle;rounded=0;orthogonalLoop=1;jettySize=auto;html=1;entryX=0.5;entryY=0;entryDx=0;entryDy=0;" edge="1" parent="1" source="fUEkJKMRzZeiz2WE1QDj-7" target="JdeHYtFpn3aFt2i3ZNIl-3">
          <mxGeometry relative="1" as="geometry" />
        </mxCell>
        <mxCell id="fUEkJKMRzZeiz2WE1QDj-11" style="edgeStyle=orthogonalEdgeStyle;rounded=0;orthogonalLoop=1;jettySize=auto;html=1;" edge="1" parent="1" source="fUEkJKMRzZeiz2WE1QDj-7" target="JdeHYtFpn3aFt2i3ZNIl-2">
          <mxGeometry relative="1" as="geometry" />
        </mxCell>
        <mxCell id="fUEkJKMRzZeiz2WE1QDj-12" style="edgeStyle=orthogonalEdgeStyle;rounded=0;orthogonalLoop=1;jettySize=auto;html=1;" edge="1" parent="1" source="fUEkJKMRzZeiz2WE1QDj-7" target="JdeHYtFpn3aFt2i3ZNIl-4">
          <mxGeometry relative="1" as="geometry" />
        </mxCell>
        <mxCell id="fUEkJKMRzZeiz2WE1QDj-13" style="edgeStyle=orthogonalEdgeStyle;rounded=0;orthogonalLoop=1;jettySize=auto;html=1;" edge="1" parent="1" source="fUEkJKMRzZeiz2WE1QDj-7" target="JdeHYtFpn3aFt2i3ZNIl-13">
          <mxGeometry relative="1" as="geometry" />
        </mxCell>
        <mxCell id="fUEkJKMRzZeiz2WE1QDj-7" value="Execute commands" style="shape=process;whiteSpace=wrap;html=1;backgroundOutline=1;" vertex="1" parent="1">
          <mxGeometry x="260" y="-90" width="120" height="60" as="geometry" />
        </mxCell>
        <mxCell id="fUEkJKMRzZeiz2WE1QDj-20" style="edgeStyle=orthogonalEdgeStyle;rounded=0;orthogonalLoop=1;jettySize=auto;html=1;entryX=0.5;entryY=0;entryDx=0;entryDy=0;" edge="1" parent="1" source="fUEkJKMRzZeiz2WE1QDj-14" target="fUEkJKMRzZeiz2WE1QDj-4">
          <mxGeometry relative="1" as="geometry">
            <Array as="points">
              <mxPoint x="510" y="-280" />
              <mxPoint x="-70" y="-280" />
            </Array>
          </mxGeometry>
        </mxCell>
        <mxCell id="fUEkJKMRzZeiz2WE1QDj-21" style="edgeStyle=orthogonalEdgeStyle;rounded=0;orthogonalLoop=1;jettySize=auto;html=1;entryX=0.5;entryY=0;entryDx=0;entryDy=0;" edge="1" parent="1" source="fUEkJKMRzZeiz2WE1QDj-14" target="fUEkJKMRzZeiz2WE1QDj-7">
          <mxGeometry relative="1" as="geometry">
            <Array as="points">
              <mxPoint x="510" y="-120" />
              <mxPoint x="320" y="-120" />
            </Array>
          </mxGeometry>
        </mxCell>
        <mxCell id="fUEkJKMRzZeiz2WE1QDj-14" value="Display&amp;nbsp;&lt;br&gt;Ambiguities" style="shape=process;whiteSpace=wrap;html=1;backgroundOutline=1;" vertex="1" parent="1">
          <mxGeometry x="450" y="-215" width="120" height="60" as="geometry" />
        </mxCell>
        <mxCell id="fUEkJKMRzZeiz2WE1QDj-18" style="edgeStyle=orthogonalEdgeStyle;rounded=0;orthogonalLoop=1;jettySize=auto;html=1;entryX=0.5;entryY=0;entryDx=0;entryDy=0;" edge="1" parent="1" source="fUEkJKMRzZeiz2WE1QDj-16">
          <mxGeometry relative="1" as="geometry">
            <mxPoint x="320" y="570" as="targetPoint" />
          </mxGeometry>
        </mxCell>
        <mxCell id="fUEkJKMRzZeiz2WE1QDj-16" value="All items ready&lt;div&gt;and action&lt;/div&gt;&lt;div&gt;confirmed&lt;/div&gt;" style="strokeWidth=2;html=1;shape=mxgraph.flowchart.decision;whiteSpace=wrap;" vertex="1" parent="1">
          <mxGeometry x="257.5" y="390" width="125" height="120" as="geometry" />
        </mxCell>
        <mxCell id="fUEkJKMRzZeiz2WE1QDj-17" style="edgeStyle=orthogonalEdgeStyle;rounded=0;orthogonalLoop=1;jettySize=auto;html=1;entryX=0.5;entryY=0;entryDx=0;entryDy=0;entryPerimeter=0;" edge="1" parent="1" source="JdeHYtFpn3aFt2i3ZNIl-5" target="fUEkJKMRzZeiz2WE1QDj-16">
          <mxGeometry relative="1" as="geometry" />
        </mxCell>
        <mxCell id="fUEkJKMRzZeiz2WE1QDj-22" value="Display recipe and adjust inventory" style="shape=process;whiteSpace=wrap;html=1;backgroundOutline=1;" vertex="1" parent="1">
          <mxGeometry x="260" y="570" width="120" height="60" as="geometry" />
        </mxCell>
        <mxCell id="fUEkJKMRzZeiz2WE1QDj-23" style="edgeStyle=orthogonalEdgeStyle;rounded=0;orthogonalLoop=1;jettySize=auto;html=1;entryX=1.029;entryY=0.871;entryDx=0;entryDy=0;entryPerimeter=0;" edge="1" parent="1" source="fUEkJKMRzZeiz2WE1QDj-22" target="fUEkJKMRzZeiz2WE1QDj-4">
          <mxGeometry relative="1" as="geometry" />
        </mxCell>
        <mxCell id="fUEkJKMRzZeiz2WE1QDj-24" value="Confirming the action consumes the materials" style="text;html=1;align=center;verticalAlign=middle;whiteSpace=wrap;rounded=0;" vertex="1" parent="1">
          <mxGeometry x="395" y="435" width="105" height="55" as="geometry" />
        </mxCell>
      </root>
    </mxGraphModel>
  </diagram>
</mxfile>
